:SAMPLES-PER-SECOND 30
:FULLY-SPECIFIED
:DEGREES
122
root  23.50066628 39.47911 53.02577582 -7.464429855 4.1552701 -4.418069839
lowerback  11.08370018 -0.9804469943 -0.06735269725
upperback  2.471240044 -1.131330013 4.165060043
thorax  -3.544909954 -0.5503249764 4.551829815
lowerneck  -17.11590004 -5.508999825 -15.74549961
upperneck  26.98789978 -6.376080036 10.85330009
head  12.71150017 -3.11371994 5.860750198
lclavicle  0 -5.34481991e-014 2.981770104e-014
lhumerus  -39.11040115 7.38312006 80.27249908
lradius  -2.620517628e-031 -2.366797709e-031 42.08769989
lwrist  -1.059337512e-030 -0 2.976059914
lhand  -7.164272731e-031 -9.680919647 30.02079964
lfingers  90 7.125020027 -90
lthumb  94.10660961 13.76847112 73.2130835
rclavicle  0 -5.34481991e-014 2.981770104e-014
rhumerus  -38.54919815 -19.21389961 -71.78620148
rradius  3.318363914e-031 1.20718887e-031 19.99090004
rwrist  7.062250077e-031 -3.531125038e-031 15.30799961
rhand  -0 -18.26189995 9.767169952
rfingers  -90 -7.125020027 -90
rthumb  -86.28904296 -24.67904113 -81.17033886
rfemur  -10.9847002 -1.581550002 27.95129967
rtibia  -0 0 29.55920029
rfoot  -4.446186962e-032 -6.908410072 -4.053629875
rtoes  7.97220762 18.40237186 -113.9231175
lfemur  -1.07723999 2.948610067 -10.17570019
ltibia  -0 0 62.40639877
lfoot  -0 23.13159943 -7.609419823
ltoes  -6.760654606 -18.86687899 -110.132742
123
root  23.46600059 39.49177659 53.35444653 -7.694789886 3.831909895 -4.76113987
lowerback  11.33899975 -0.8407570124 0.2091719955
upperback  2.449369907 -0.9017090201 4.267549992
thorax  -3.729530096 -0.4356819987 4.478740215
lowerneck  -16.75849915 -5.46750021 -15.7052002
upperneck  27.05620003 -6.346950054 10.70870018
head  12.65289974 -3.12458992 5.804249763
lclavicle  0 -5.34481991e-014 2.981770104e-014
lhumerus  -39.52529907 7.554299831 80.44470215
lradius  -2.633325912e-031 -2.352538773e-031 41.77669907
lwrist  -7.062250077e-031 -3.531125038e-031 2.514830112
lhand  -7.160813079e-031 -9.517279625 30.08889961
lfingers  90 7.125020027 -90
lthumb  94.16165202 13.80983787 73.04730413
rclavicle  0 -5.34481991e-014 2.981770104e-014
rhumerus  -38.47140121 -19.06749916 -71.76779938
rradius  3.315083896e-031 1.216167259e-031 20.14599991
rwrist  0 -3.531125038e-031 15.68889999
rhand  -0 -18.92709923 10.58609962
rfingers  -90 -7.125020027 -90
rthumb  -86.45924258 -25.50641718 -81.82287771
rfemur  -10.06840038 -1.269250035 28.49699974
rtibia  -0 0 29.31909943
rfoot  -4.449738643e-032 -7.276120186 -4.174479961
rtoes  8.131104722 18.33467742 -114.4273453
lfemur  -2.090950012 3.351819992 -9.560230255
ltibia  -0 0 64.12310028
lfoot  9.42976025e-032 20.58279991 -6.84882021
ltoes  -6.930995652 -18.80693369 -110.6603138
124
root  23.41977818 39.50666593 53.671553 -7.837510109 3.656369925 -4.82366991
lowerback  11.54699993 -0.7369340062 0.1561020017
upperback  2.446439981 -0.7654640079 4.242440224
thorax  -3.857209921 -0.3660210073 4.468619823
lowerneck  -16.49309921 -5.395929813 -15.67700005
upperneck  27.10840034 -6.335989952 10.83069992
head  12.61900043 -3.110110044 5.854959965
lclavicle  0 -5.34481991e-014 2.981770104e-014
lhumerus  -39.69520187 7.825870037 80.43890381
lradius  -2.658680878e-031 -2.323845956e-031 41.15539932
lwrist  -7.062250077e-031 -3.531125038e-031 2.069750071
lhand  -7.159746854e-031 -9.46625042 30.46369934
lfingers  90 7.125020027 -90
lthumb  94.28548603 14.16074105 72.9698604
rclavicle  0 -5.34481991e-014 2.981770104e-014
rhumerus  -38.20069885 -18.81850052 -71.99639893
rradius  3.31582829e-031 1.214136231e-031 20.11090088
rwrist  7.062250077e-031 -3.531125038e-031 15.82409954
rhand  -0 -19.44639969 10.05060005
rfingers  -90 -7.125020027 -90
rthumb  -86.77898739 -24.98869134 -82.41184348
rfemur  -9.283040047 -0.8938509822 28.75819969
rtibia  -0 0 29.13339996
rfoot  -4.453385538e-032 -7.634809971 -4.434929848
rtoes  8.187683061 18.31018075 -114.6073222
lfemur  -3.227190018 3.77203989 -9.247779846
ltibia  -0 0 65.66169739
lfoot  4.645020233e-032 18.14990044 -6.443290234
ltoes  -6.422556192 -18.98083599 -109.0902564
125
root  23.4035552 39.53600005 53.98533138 -7.882309914 3.597959995 -4.345039845
lowerback  11.32800007 -0.6375859976 -0.3114010096
upperback  2.78421998 -0.7133179903 4.063020229
thorax  -3.383409977 -0.3463479877 4.525599957
lowerneck  -16.90139961 -5.52891016 -15.70870018
upperneck  27.08040047 -6.49725008 10.98359966
head  12.72749996 -3.155100107 5.892879963
lclavicle  0 -5.34481991e-014 2.981770104e-014
lhumerus  -39.13430023 8.354539871 80.48349762
lradius  -2.692726432e-031 -2.284309173e-031 40.30879974
lwrist  -1.059337512e-030 -3.531125038e-031 1.653480053
lhand  -7.160352879e-031 -9.495289803 30.84770012
lfingers  90 7.125020027 -90
lthumb  94.39512448 14.53222033 72.96974254
rclavicle  0 -5.34481991e-014 2.981770104e-014
rhumerus  -37.11050034 -18.66010094 -72.48069763
rradius  3.320274957e-031 1.20192273e-031 19.89999962
rwrist  7.062250077e-031 -3.531125038e-031 15.76340008
rhand  3.749373186e-031 -19.64550018 10.68089962
rfingers  -90 -7.125020027 -90
rthumb  -86.77960347 -25.61825074 -82.58562145
rfemur  -8.555549622 -0.8765890002 28.29809952
rtibia  -0 0 28.91659927
rfoot  -4.457489531e-032 -8.018750191 -4.369709969
rtoes  7.823214073 18.46438305 -113.4519222
lfemur  -4.398620129 4.090069771 -9.783800125
ltibia  -0 0 66.9151001
lfoot  4.598463234e-032 16.28770065 -5.954589844
ltoes  -5.541532953 -19.24723434 -106.4001417
